{"glyphs":{":":{"x_min":0,"x_max":315,"ha":315,"o":"m 157 -14 q 131 -14 113 4 q 95 23 95 49 q 95 73 114 92 q 132 111 157 111 q 183 111 202 93 q 220 75 220 49 q 220 21 202 4 q 184 -14 157 -14 z m 157 230 q 131 230 113 249 q 95 267 95 293 q 95 317 114 336 q 132 355 157 355 q 183 355 202 337 q 220 319 220 293 q 220 266 202 248 q 184 230 157 230 z"},"$":{"x_min":0,"x_max":583,"ha":583,"o":"m 205 429 l 203 639 q 152 631 124 603 q 95 574 95 532 q 95 494 121 470 q 146 446 205 429 z m 231 422 q 254 416 278 411 q 302 405 330 400 l 328 629 q 304 636 283 639 q 261 642 241 642 l 233 642 z m 355 281 l 353 37 q 413 45 450 79 q 487 113 487 158 q 487 204 456 233 q 425 262 355 281 z m 226 52 q 252 44 278 41 q 304 37 331 37 l 331 287 q 303 293 248 305 q 236 308 230 309 z m 224 -143 q 224 -150 222 -154 q 220 -158 217 -158 q 211 -158 209 -154 q 206 -150 206 -143 l 206 -7 q 134 0 92 39 q 50 78 50 137 q 50 166 59 190 q 69 214 78 214 q 86 214 87 196 q 88 179 91 168 q 103 129 131 102 q 159 76 206 60 l 206 316 q 125 333 88 374 q 50 415 50 487 q 50 554 90 603 q 130 651 203 673 q 202 725 199 768 q 196 811 190 846 l 243 846 q 238 811 235 771 q 233 730 233 681 q 245 684 259 685 q 272 686 289 686 q 295 686 304 686 q 312 685 328 684 q 328 731 326 771 q 323 812 318 846 l 371 846 q 365 804 361 762 q 358 721 358 680 q 426 667 464 632 q 501 597 501 545 q 501 517 493 495 q 485 472 477 472 q 470 472 467 490 q 464 503 462 510 q 449 549 423 576 q 397 603 357 619 l 356 394 q 451 380 496 338 q 541 296 541 223 q 541 141 492 83 q 443 25 352 1 l 351 -143 q 351 -151 349 -155 q 346 -158 341 -158 q 337 -158 336 -154 q 334 -150 334 -143 l 330 -5 q 311 -8 291 -10 q 272 -11 253 -11 q 242 -11 237 -11 q 232 -11 227 -10 z"},"?":{"x_min":0,"x_max":500,"ha":500,"o":"m 240 -9 q 214 -9 196 9 q 177 27 177 52 q 177 77 196 96 q 215 115 240 115 q 266 115 285 97 q 303 79 303 54 q 303 26 285 9 q 267 -9 240 -9 z m 419 559 q 419 492 320 369 q 307 353 300 344 q 261 294 249 273 q 237 253 237 239 q 237 220 252 204 q 267 187 267 181 q 267 178 265 176 q 263 173 261 173 q 234 173 205 212 q 176 250 176 297 q 176 332 198 371 q 221 411 287 482 q 293 489 305 501 q 374 577 374 615 q 374 645 352 662 q 331 679 293 679 q 261 679 229 667 q 198 656 171 634 q 135 606 123 588 q 110 569 110 548 q 110 537 114 521 q 118 504 118 499 q 118 494 116 491 q 114 489 109 489 q 96 489 77 525 q 57 561 57 593 q 57 646 111 685 q 166 723 244 723 q 322 723 370 677 q 419 632 419 559 z"},"<":{"x_min":0,"x_max":833,"ha":833,"o":"m 704 566 l 704 491 l 231 298 l 704 106 l 704 31 l 129 267 l 129 330 z"},"'":{"x_min":0,"x_max":172,"ha":172,"o":"m 95 420 l 78 420 l 44 644 q 44 645 43 648 q 42 658 42 662 q 42 687 53 700 q 65 714 86 714 q 106 714 118 701 q 130 688 130 664 q 130 661 130 657 q 129 653 128 644 z"},"=":{"x_min":0,"x_max":833,"ha":833,"o":"m 124 235 l 709 235 l 709 167 l 124 167 z m 124 429 l 709 429 l 709 361 l 124 361 z"},"a":{"x_min":0,"x_max":477,"ha":477,"o":"m 284 75 l 284 159 q 261 168 242 173 q 224 178 211 178 q 177 178 159 159 q 142 141 142 104 q 142 73 156 55 q 171 37 196 37 q 210 37 229 45 q 248 53 284 75 z m 284 52 q 240 17 206 1 q 172 -14 143 -14 q 95 -14 66 15 q 38 43 38 92 q 38 143 74 174 q 110 206 167 206 q 192 206 221 200 q 250 194 284 181 l 284 221 q 284 275 268 295 q 252 314 212 314 q 168 314 124 296 q 80 279 79 279 q 74 279 72 282 q 69 284 69 290 q 69 312 130 338 q 190 364 263 364 q 325 364 355 337 q 385 311 385 255 q 385 245 385 235 q 384 225 384 215 l 376 92 q 376 88 375 82 q 375 76 375 74 q 375 57 379 51 q 383 45 393 45 q 412 45 434 61 q 457 76 460 76 q 464 76 468 73 q 471 70 471 67 q 471 61 460 50 q 449 40 428 27 q 396 7 368 -3 q 340 -14 319 -14 q 301 -14 292 -1 q 284 12 284 41 z"},"L":{"x_min":0,"x_max":618,"ha":618,"o":"m 264 32 q 283 27 302 25 q 320 23 338 23 q 400 23 461 35 q 521 47 575 71 l 582 153 q 583 164 586 169 q 589 175 594 175 q 598 175 599 170 q 601 165 601 155 q 601 153 600 144 q 597 104 597 66 q 597 27 600 -12 q 602 -51 602 -52 q 602 -59 600 -62 q 598 -65 594 -65 q 591 -65 588 -61 q 585 -57 584 -50 l 579 -19 q 548 -10 479 -5 q 411 0 316 0 l 202 0 q 130 0 65 -6 q 56 -7 54 -7 q 46 -7 42 -4 q 37 0 37 5 q 37 14 57 20 q 77 26 134 32 q 138 75 139 123 q 141 171 141 228 l 141 476 q 141 533 139 581 q 138 629 134 672 q 77 678 57 684 q 37 690 37 699 q 37 704 42 708 q 46 711 54 711 q 56 711 66 710 q 130 704 199 704 q 269 704 332 710 q 342 711 344 711 q 352 711 356 708 q 361 704 361 699 q 361 690 341 684 q 321 678 264 672 q 260 630 259 582 q 257 533 257 476 l 257 228 q 257 171 259 123 q 260 74 264 32 z"},"3":{"x_min":0,"x_max":583,"ha":583,"o":"m 395 409 q 457 389 492 338 q 528 287 528 219 q 528 117 452 49 q 376 -19 262 -19 q 208 -19 156 -2 q 104 15 57 48 q 36 63 26 75 q 16 86 16 96 q 16 101 19 104 q 21 108 26 108 q 29 108 47 94 q 64 81 80 70 q 109 50 149 40 q 189 29 233 29 q 318 29 371 74 q 423 120 423 194 q 423 262 375 305 q 327 348 250 348 q 208 348 166 334 q 123 320 120 320 q 117 320 114 323 q 112 327 112 331 q 112 354 177 387 q 243 421 315 421 q 325 421 337 420 q 349 419 362 418 q 379 438 388 460 q 397 482 397 506 q 397 564 358 600 q 320 635 255 635 q 221 635 189 625 q 157 616 127 596 q 107 583 87 562 q 66 540 60 540 q 55 540 52 542 q 50 545 50 550 q 50 559 59 571 q 68 583 95 609 q 136 649 194 671 q 252 694 313 694 q 390 694 438 653 q 486 613 486 548 q 486 508 464 474 q 441 440 395 409 z"},";":{"x_min":0,"x_max":315,"ha":315,"o":"m 77 -168 q 77 -166 81 -158 q 108 -92 108 -6 q 108 27 105 63 q 105 73 105 75 q 105 84 135 94 q 165 104 198 104 q 209 104 214 99 q 218 93 218 80 q 218 59 202 16 q 187 -27 159 -78 q 130 -132 113 -156 q 96 -179 86 -179 q 82 -179 79 -176 q 77 -173 77 -168 z m 161 230 q 135 230 117 249 q 99 267 99 293 q 99 317 118 336 q 137 355 161 355 q 187 355 206 337 q 224 319 224 293 q 224 266 206 248 q 188 230 161 230 z"},"J":{"x_min":0,"x_max":380,"ha":380,"o":"m 141 476 q 141 533 139 581 q 138 629 134 672 q 77 678 57 684 q 37 690 37 699 q 37 704 42 708 q 46 711 54 711 q 58 711 73 709 q 138 702 199 702 q 259 702 325 709 q 340 711 344 711 q 352 711 356 708 q 361 704 361 699 q 361 690 341 684 q 321 678 264 672 q 260 630 259 582 q 257 533 257 476 l 257 178 q 257 114 250 68 q 243 21 228 -10 q 212 -46 184 -77 q 156 -108 107 -143 q 66 -171 25 -192 q -16 -212 -26 -212 q -31 -212 -34 -210 q -37 -208 -37 -205 q -37 -194 -11 -179 q 16 -164 31 -151 q 70 -119 90 -91 q 110 -62 122 -24 q 130 3 136 54 q 141 104 141 163 z"},"V":{"x_min":0,"x_max":722,"ha":722,"o":"m 392 1 q 387 -12 382 -18 q 377 -23 370 -23 q 359 -23 350 -2 q 349 1 348 3 l 64 672 q 7 678 -13 684 q -33 690 -33 699 q -33 704 -28 708 q -23 711 -16 711 q -12 711 4 709 q 69 702 129 702 q 189 702 255 709 q 270 711 274 711 q 281 711 286 708 q 290 705 290 699 q 290 690 269 684 q 247 678 187 672 l 412 126 q 471 270 514 407 q 557 545 582 672 q 525 678 505 684 q 485 690 485 699 q 485 704 490 708 q 495 711 502 711 q 506 711 546 707 q 587 702 624 702 q 661 702 702 707 q 742 711 746 711 q 753 711 758 708 q 762 705 762 699 q 762 690 742 684 q 722 678 666 672 q 635 610 604 539 q 574 469 543 390 z"},"\"":{"x_min":0,"x_max":335,"ha":335,"o":"m 257 420 l 240 420 l 206 644 q 206 647 205 651 q 205 655 205 662 q 205 687 216 700 q 227 714 248 714 q 269 714 280 701 q 292 688 292 664 q 292 656 292 652 q 292 648 291 644 z m 95 420 l 78 420 l 44 644 q 43 652 42 657 q 42 661 42 664 q 42 688 54 701 q 65 714 86 714 q 107 714 119 700 q 130 687 130 662 q 130 654 130 651 q 129 647 129 644 z"},"7":{"x_min":0,"x_max":583,"ha":583,"o":"m 312 31 q 382 25 405 20 q 428 15 428 5 q 428 0 424 -4 q 419 -7 412 -7 q 410 -7 399 -6 q 323 1 240 1 q 162 1 89 -6 q 77 -7 74 -7 q 67 -7 62 -4 q 58 0 58 5 q 58 15 84 21 q 109 27 176 31 q 216 196 290 343 q 363 489 473 626 q 338 626 240 615 q 143 604 97 585 l 90 531 q 87 515 84 510 q 81 504 76 504 q 72 504 70 507 q 68 510 68 516 q 68 518 69 526 q 73 581 73 641 q 73 685 69 731 q 68 741 68 743 q 68 751 70 754 q 72 758 77 758 q 84 758 88 737 q 89 735 89 734 l 97 691 q 143 684 215 680 q 287 676 377 676 q 428 676 483 679 q 497 680 500 680 q 512 680 517 676 q 523 672 523 664 q 523 658 493 605 q 463 552 440 504 q 381 380 349 263 q 317 145 312 31 z"},"S":{"x_min":0,"x_max":655,"ha":655,"o":"m 113 28 l 106 -22 q 105 -24 105 -29 q 100 -67 90 -67 q 85 -67 83 -63 q 80 -60 80 -53 q 80 -49 82 -32 q 90 37 90 100 q 90 171 85 235 q 84 245 84 246 q 84 253 86 258 q 88 262 93 262 q 98 262 101 257 q 104 251 106 240 l 115 169 q 167 109 234 78 q 301 47 377 47 q 453 47 496 75 q 539 104 539 153 q 539 205 499 233 q 459 260 322 285 q 318 286 310 287 q 190 307 148 346 q 118 373 103 410 q 88 447 88 493 q 88 599 156 661 q 225 723 342 723 q 387 723 435 713 q 482 704 532 684 l 541 725 q 542 728 542 732 q 550 770 559 770 q 563 770 565 767 q 568 763 568 756 q 568 754 566 745 q 552 656 552 543 q 552 538 553 526 q 554 515 554 510 q 554 501 552 497 q 549 492 545 492 q 539 492 536 497 q 533 502 532 515 l 527 570 q 480 615 421 638 q 361 661 292 661 q 217 661 172 629 q 126 597 126 545 q 126 525 134 507 q 142 490 157 478 q 194 449 310 434 q 349 428 370 425 q 472 409 525 355 q 578 302 578 215 q 578 105 507 43 q 436 -19 309 -19 q 262 -19 213 -7 q 163 5 113 28 z"},"}":{"x_min":0,"x_max":500,"ha":500,"o":"m 86 740 l 91 740 q 198 740 239 704 q 279 668 279 571 l 279 470 q 279 392 307 362 q 335 333 414 326 l 414 295 q 335 289 307 259 q 279 229 279 151 l 279 50 q 279 -47 239 -83 q 198 -119 91 -119 l 86 -119 l 86 -93 q 153 -92 177 -67 q 201 -41 201 35 l 201 104 q 201 215 230 255 q 258 294 336 310 q 259 326 230 365 q 201 405 201 516 l 201 585 q 201 662 177 688 q 152 713 86 714 z"},"Z":{"x_min":0,"x_max":632,"ha":632,"o":"m 212 0 q 146 0 78 -6 q 63 -8 60 -8 q 50 -8 44 -5 q 38 -2 38 3 q 38 13 47 27 q 48 29 48 29 l 452 672 q 444 672 428 672 q 412 673 404 673 q 299 673 217 658 q 134 644 84 617 l 78 556 q 76 543 73 539 q 71 534 66 534 q 62 534 61 539 q 59 543 59 554 q 59 555 61 583 q 63 610 63 637 q 63 674 61 714 q 58 754 58 756 q 58 763 60 766 q 62 769 66 769 q 69 769 71 765 q 73 762 75 754 l 81 723 q 112 714 180 709 q 249 704 344 704 l 425 704 q 487 704 557 710 q 575 712 580 712 q 589 712 594 708 q 600 705 600 699 q 600 691 590 676 l 589 675 l 188 31 l 227 31 q 340 31 423 45 q 507 59 549 85 l 560 152 q 562 164 564 167 q 567 171 571 171 q 575 171 578 167 q 580 164 580 157 q 580 155 577 120 q 573 85 573 52 q 573 19 577 -16 q 580 -51 580 -53 q 580 -60 577 -63 q 575 -67 570 -67 q 566 -67 564 -63 q 562 -60 560 -49 l 556 -18 q 520 -9 453 -5 q 385 0 292 0 z"},"x":{"x_min":0,"x_max":491,"ha":491,"o":"m 343 321 q 317 329 306 335 q 294 341 294 347 q 294 352 297 354 q 301 356 309 356 q 313 356 337 354 q 361 351 381 351 q 400 351 424 354 q 448 356 452 356 q 460 356 464 354 q 467 352 467 347 q 467 339 449 332 q 432 325 401 321 q 372 295 344 268 q 316 241 290 212 l 443 29 q 454 25 470 21 q 501 11 501 3 q 501 -2 497 -4 q 494 -6 485 -6 q 481 -6 469 -5 q 418 0 374 0 q 329 0 277 -5 q 265 -6 261 -6 q 252 -6 249 -4 q 245 -2 245 3 q 245 11 264 17 q 282 24 318 29 l 223 144 q 197 117 177 88 q 158 60 143 29 q 183 20 196 15 q 208 9 208 3 q 208 -2 205 -4 q 202 -6 193 -6 q 190 -6 161 -3 q 132 -1 106 -1 q 80 -1 51 -3 q 22 -6 19 -6 q 10 -6 7 -4 q 3 -2 3 3 q 3 10 17 16 q 31 21 66 29 q 95 52 132 85 q 169 119 209 160 l 75 321 q 43 328 29 334 q 14 341 14 347 q 14 352 18 354 q 21 356 30 356 q 30 356 66 353 q 101 350 135 350 q 170 350 205 353 q 240 356 240 356 q 249 356 252 354 q 256 352 256 347 q 256 341 243 335 q 231 330 197 321 l 275 230 q 296 255 313 278 q 330 300 343 321 z"},")":{"x_min":0,"x_max":319,"ha":319,"o":"m 237 251 q 237 159 202 60 q 167 -39 96 -143 q 73 -178 55 -198 q 37 -219 31 -219 q 27 -219 25 -217 q 23 -216 23 -214 q 23 -209 33 -192 q 43 -176 49 -164 q 94 -71 116 31 q 138 134 138 251 q 138 357 120 453 q 102 548 67 628 q 55 656 39 685 q 23 714 23 717 q 23 719 25 720 q 27 722 31 722 q 37 722 55 701 q 73 679 98 643 q 167 540 202 441 q 237 342 237 251 z"},"&":{"x_min":0,"x_max":757,"ha":757,"o":"m 554 294 q 467 240 434 206 q 401 171 401 136 q 401 133 401 126 q 402 120 402 116 q 402 110 400 107 q 398 104 395 104 q 385 104 381 119 q 377 134 377 171 q 377 229 411 274 q 444 318 573 397 q 583 403 601 414 q 686 465 686 487 q 686 491 685 494 q 684 496 682 496 q 680 496 668 491 q 657 487 647 487 q 624 487 611 499 q 598 510 598 531 q 598 553 613 567 q 627 582 649 582 q 678 582 694 560 q 711 539 711 501 q 711 454 677 406 q 643 357 577 311 q 599 284 609 255 q 620 226 620 193 q 620 101 546 41 q 472 -19 356 -19 q 298 -19 249 -2 q 200 15 162 49 q 119 87 97 137 q 74 188 74 244 q 74 333 126 394 q 178 454 265 466 q 233 501 220 527 q 207 553 207 581 q 207 640 250 681 q 293 722 357 722 q 392 722 421 710 q 451 698 476 674 q 490 661 500 643 q 510 626 510 617 q 510 612 508 609 q 506 607 502 607 q 499 607 486 617 q 439 654 393 654 q 343 654 308 622 q 273 590 273 544 q 273 526 280 508 q 287 489 302 465 q 350 454 386 429 q 422 404 422 387 q 422 383 419 380 q 416 377 411 377 q 409 377 401 380 q 371 390 342 390 q 271 390 227 343 q 183 296 183 219 q 183 125 240 68 q 297 11 390 11 q 479 11 537 62 q 595 113 595 190 q 595 216 585 240 q 576 265 554 294 z"},"_":{"x_min":0,"x_max":500,"ha":500,"o":"m 0 -166 l 500 -166 l 500 -236 l 0 -236 z"},"v":{"x_min":0,"x_max":481,"ha":481,"o":"m 58 321 q 26 325 7 332 q -12 339 -12 347 q -12 352 -9 354 q -5 356 4 356 q 7 356 21 354 q 72 349 116 349 q 161 349 211 354 q 225 356 228 356 q 237 356 240 354 q 244 352 244 347 q 244 339 225 333 q 206 326 169 321 l 288 93 q 317 168 334 227 q 351 287 353 321 q 322 328 308 334 q 294 340 294 347 q 294 352 298 354 q 301 356 310 356 q 313 356 340 354 q 367 351 391 351 q 415 351 442 354 q 469 356 472 356 q 480 356 484 354 q 487 352 487 347 q 487 340 473 334 q 459 328 429 321 q 390 259 328 127 q 318 105 313 94 l 266 -7 q 260 -21 256 -24 q 252 -28 247 -28 q 244 -28 240 -25 q 237 -21 231 -10 z"},"O":{"x_min":0,"x_max":845,"ha":845,"o":"m 175 352 q 175 190 240 97 q 305 5 418 5 q 533 5 601 98 q 669 192 669 352 q 669 514 604 607 q 539 699 426 699 q 312 699 243 605 q 175 511 175 352 z m 409 -19 q 328 -19 261 6 q 195 32 142 83 q 93 130 69 194 q 44 258 44 338 q 44 423 71 492 q 98 561 150 613 q 205 667 277 695 q 349 723 435 723 q 516 723 583 698 q 650 672 701 622 q 751 573 776 509 q 801 445 801 366 q 801 193 693 87 q 586 -19 409 -19 z"},"(":{"x_min":0,"x_max":319,"ha":319,"o":"m 84 251 q 84 342 119 441 q 154 539 225 645 q 249 681 267 701 q 284 722 290 722 q 294 722 296 720 q 298 719 298 717 q 298 711 288 694 q 278 677 273 666 q 228 572 205 469 q 183 367 183 251 q 183 146 201 52 q 219 -43 255 -125 q 267 -152 282 -181 q 298 -210 298 -214 q 298 -216 296 -218 q 294 -219 290 -219 q 284 -219 266 -198 q 248 -176 223 -140 q 154 -36 119 62 q 84 161 84 251 z"},"C":{"x_min":0,"x_max":734,"ha":734,"o":"m 649 672 l 659 721 q 660 724 661 729 q 668 766 677 766 q 682 766 684 762 q 687 759 687 752 q 687 750 685 736 q 667 623 667 487 q 667 481 667 471 q 668 460 668 455 q 668 446 666 442 q 663 437 659 437 q 653 437 651 441 q 648 445 646 459 l 638 536 q 602 614 546 657 q 490 699 424 699 q 312 699 243 605 q 175 510 175 353 q 175 208 246 118 q 318 27 430 27 q 480 27 531 47 q 583 68 624 105 q 635 115 651 132 q 667 150 674 150 q 678 150 680 148 q 683 146 683 142 q 683 136 672 120 q 661 103 644 87 q 585 31 523 6 q 461 -19 379 -19 q 230 -19 136 79 q 43 176 43 333 q 43 414 67 481 q 91 548 138 599 q 193 659 266 691 q 339 722 424 722 q 477 722 532 710 q 587 698 649 672 z"},"W":{"x_min":0,"x_max":975,"ha":975,"o":"m 548 408 l 656 120 q 730 287 776 422 q 821 558 842 672 q 827 673 809 673 q 791 674 754 674 q 717 674 699 673 q 681 673 666 672 q 635 612 606 546 q 576 479 548 408 z m 332 672 q 320 673 306 673 q 292 674 263 674 q 234 674 219 673 q 205 673 192 672 l 396 119 q 415 162 435 208 q 454 254 474 304 z m 587 672 q 560 679 546 686 q 532 692 532 699 q 532 705 536 708 q 541 711 548 711 q 552 711 593 707 q 634 702 670 702 l 884 702 q 920 702 961 707 q 1002 711 1006 711 q 1013 711 1018 708 q 1022 705 1022 699 q 1022 690 1002 684 q 982 678 926 672 q 881 583 811 418 l 800 393 l 634 1 q 627 -15 623 -19 q 619 -23 612 -23 q 600 -23 591 2 l 591 3 l 489 268 l 375 1 q 368 -15 364 -19 q 359 -23 353 -23 q 346 -23 342 -18 q 337 -14 331 3 l 73 672 q 17 678 -3 684 q -23 690 -23 699 q -23 705 -19 708 q -14 711 -7 711 q -3 711 12 709 q 77 702 138 702 l 336 702 q 396 702 462 709 q 478 711 482 711 q 489 711 494 708 q 498 705 498 699 q 498 692 487 686 q 475 680 449 672 l 529 453 q 547 507 562 562 q 576 617 587 672 z"},"A":{"x_min":0,"x_max":703,"ha":703,"o":"m 197 253 l 424 253 l 316 544 z m 187 228 q 162 149 150 104 q 138 59 135 31 q 195 24 213 19 q 232 14 232 5 q 232 0 228 -4 q 224 -7 217 -7 q 211 -7 169 -2 q 126 2 90 2 q 52 2 9 -2 q -33 -7 -38 -7 q -45 -7 -50 -4 q -54 0 -54 5 q -54 14 -35 19 q -17 24 44 31 q 75 83 107 146 q 140 209 174 284 l 268 491 q 289 537 307 583 q 326 628 341 672 q 346 688 352 710 q 358 740 369 740 q 377 740 382 712 q 383 708 383 706 q 389 672 410 608 q 431 544 463 462 l 572 186 q 582 162 600 121 q 618 80 639 31 q 704 23 719 18 q 735 13 735 5 q 735 0 730 -4 q 726 -7 719 -7 q 717 -7 669 -2 q 621 2 574 2 q 512 2 442 -5 q 423 -7 418 -7 q 411 -7 406 -4 q 402 0 402 5 q 402 14 420 19 q 439 24 499 31 q 492 65 476 115 q 459 164 434 228 z"},"f":{"x_min":0,"x_max":356,"ha":356,"o":"m 207 350 l 273 350 q 284 350 303 352 q 322 353 343 356 l 343 315 q 318 318 299 320 q 280 322 273 322 l 207 322 l 207 228 q 207 170 209 121 q 210 73 214 31 q 274 28 307 21 q 340 13 340 3 q 340 -2 336 -4 q 333 -6 324 -6 q 322 -6 311 -5 q 248 1 184 1 q 116 1 50 -5 q 39 -6 37 -6 q 28 -6 25 -4 q 22 -2 22 3 q 22 10 41 17 q 59 24 98 31 q 102 74 103 122 q 105 171 105 228 l 105 322 l 86 322 q 80 322 61 320 q 42 318 17 315 l 17 356 q 38 353 56 352 q 75 350 86 350 l 105 350 l 105 549 q 105 629 119 674 q 133 718 165 761 q 198 805 232 828 q 266 852 295 852 q 325 852 343 835 q 361 818 361 790 q 361 764 347 749 q 333 734 308 734 q 288 734 275 744 q 262 753 259 770 q 258 776 257 787 q 254 812 242 812 q 228 812 217 758 q 207 704 207 618 z"},"Q":{"x_min":0,"x_max":845,"ha":845,"o":"m 419 -18 q 247 -18 146 78 q 44 175 44 338 q 44 422 71 492 q 98 562 150 613 q 204 667 276 695 q 348 722 435 722 q 517 722 583 697 q 649 672 700 622 q 750 573 775 509 q 800 445 800 366 q 800 267 763 190 q 726 112 650 54 q 606 21 425 -43 q 373 -62 345 -72 l 502 -116 l 512 -119 q 606 -146 637 -146 q 666 -146 694 -126 q 723 -106 726 -106 q 731 -106 733 -109 q 736 -113 736 -119 q 736 -126 726 -139 q 717 -151 700 -166 q 665 -195 631 -209 q 597 -222 556 -222 q 516 -222 467 -210 q 417 -198 333 -167 q 263 -140 229 -131 q 195 -123 167 -123 q 148 -123 128 -128 q 107 -133 105 -133 q 99 -133 95 -130 q 91 -127 91 -123 q 91 -104 148 -85 q 205 -66 281 -65 q 316 -56 351 -44 q 385 -32 419 -18 z m 175 352 q 175 190 240 97 q 305 5 418 5 q 533 5 601 98 q 669 192 669 352 q 669 514 604 607 q 539 699 426 699 q 312 699 243 605 q 175 511 175 352 z"},"w":{"x_min":0,"x_max":703,"ha":703,"o":"m 353 180 l 266 -7 q 260 -21 256 -24 q 252 -28 247 -28 q 244 -28 240 -25 q 237 -21 231 -10 l 58 321 q 26 325 7 332 q -12 339 -12 347 q -12 352 -9 354 q -5 356 4 356 q 7 356 18 355 q 71 350 123 350 l 344 350 q 377 350 412 353 q 447 356 449 356 q 458 356 461 354 q 465 352 465 347 q 465 339 446 333 q 428 326 391 321 l 510 93 q 538 166 555 225 q 571 285 574 321 q 543 328 529 334 q 515 340 515 347 q 515 352 519 354 q 522 356 531 356 q 534 356 561 354 q 588 351 612 351 q 636 351 663 354 q 690 356 693 356 q 702 356 705 354 q 709 352 709 347 q 709 340 695 334 q 681 328 650 321 q 610 259 549 127 q 539 105 534 94 l 487 -7 q 481 -21 477 -24 q 473 -28 468 -28 q 463 -28 455 -14 q 454 -11 453 -10 z m 280 321 q 266 322 251 323 q 237 324 223 324 q 210 324 196 323 q 182 322 169 321 l 288 93 q 299 122 311 152 q 322 183 333 216 z"},"-":{"x_min":0,"x_max":338,"ha":338,"o":"m 58 144 l 58 227 l 280 227 l 280 144 z"},"E":{"x_min":0,"x_max":725,"ha":725,"o":"m 264 32 q 295 28 325 26 q 354 24 382 24 q 442 24 501 36 q 560 48 612 71 l 619 133 q 621 146 623 150 q 625 154 630 154 q 634 154 635 150 q 637 146 637 135 q 637 132 635 106 q 633 81 633 57 q 633 24 635 -12 q 638 -49 638 -52 q 638 -59 636 -62 q 634 -65 630 -65 q 627 -65 625 -61 q 623 -58 621 -50 l 615 -19 q 584 -10 515 -5 q 447 0 352 0 l 202 0 q 130 0 65 -6 q 56 -7 54 -7 q 46 -7 42 -4 q 37 0 37 5 q 37 14 57 20 q 77 26 134 32 q 138 75 139 123 q 141 171 141 228 l 141 476 q 141 533 139 581 q 138 629 134 672 q 77 678 57 684 q 37 690 37 699 q 37 704 42 708 q 46 711 54 711 q 56 711 66 710 q 130 704 199 704 l 344 704 q 439 704 507 709 q 576 714 607 723 l 613 754 q 614 761 617 765 q 620 769 623 769 q 627 769 629 766 q 631 763 631 756 q 631 753 628 717 q 625 680 625 647 q 625 624 627 597 q 630 571 630 569 q 630 559 628 554 q 627 550 623 550 q 618 550 615 554 q 613 559 611 571 l 604 633 q 552 656 491 668 q 431 680 364 680 q 344 680 320 678 q 295 676 264 672 q 260 630 259 582 q 257 533 257 476 l 257 370 l 289 370 q 376 370 447 377 q 519 385 575 400 l 584 457 q 586 468 588 472 q 591 476 595 476 q 599 476 602 472 q 604 469 604 462 q 604 460 602 425 q 599 390 599 357 q 599 324 602 289 q 604 254 604 252 q 604 246 602 242 q 600 238 595 238 q 590 238 588 242 q 586 245 584 256 l 575 314 q 518 330 443 337 q 368 345 275 345 l 257 345 l 257 228 q 257 171 259 123 q 260 74 264 32 z"},"s":{"x_min":0,"x_max":403,"ha":403,"o":"m 78 7 l 73 -13 q 70 -25 66 -31 q 62 -38 57 -38 q 53 -38 52 -36 q 50 -34 50 -29 q 50 -26 53 -12 q 63 44 63 96 q 63 102 62 112 q 61 121 61 124 q 61 131 63 134 q 64 137 68 137 q 71 137 74 135 q 76 132 78 126 l 87 83 q 130 55 170 41 q 209 27 246 27 q 279 27 297 37 q 315 48 315 67 q 315 103 209 124 q 198 126 192 127 q 122 141 93 166 q 64 192 64 240 q 64 300 105 331 q 147 363 226 363 q 249 363 271 360 q 293 357 317 351 l 328 383 q 333 397 337 402 q 340 407 344 407 q 349 407 350 405 q 352 402 352 398 q 352 396 350 383 q 339 327 339 274 q 339 269 339 260 q 340 250 340 246 q 340 240 338 236 q 337 233 334 233 q 326 233 323 244 l 323 244 l 315 272 q 284 297 246 311 q 208 324 171 324 q 136 324 120 315 q 103 305 103 285 q 103 267 118 257 q 133 248 179 239 q 294 217 325 190 q 357 163 357 109 q 357 53 314 19 q 271 -15 199 -15 q 168 -15 138 -10 q 108 -4 78 7 z"},">":{"x_min":0,"x_max":833,"ha":833,"o":"m 129 566 l 704 330 l 704 267 l 129 31 l 129 106 l 603 298 l 129 491 z"},"l":{"x_min":0,"x_max":286,"ha":286,"o":"m 92 626 l 92 654 q 92 742 83 763 q 75 785 51 785 q 42 785 28 783 q 15 781 11 781 q 7 781 5 784 q 3 786 3 790 q 3 799 34 807 q 49 811 58 813 q 92 823 135 838 q 177 853 185 853 q 189 853 191 849 q 193 845 193 830 l 193 228 q 193 170 195 122 q 196 73 200 31 q 242 23 260 16 q 277 10 277 3 q 277 -2 273 -4 q 270 -6 261 -6 q 259 -6 249 -5 q 195 0 142 0 q 89 0 35 -5 q 25 -6 23 -6 q 14 -6 10 -4 q 7 -2 7 3 q 7 10 25 16 q 42 23 85 31 q 88 73 90 122 q 92 171 92 228 z"},"8":{"x_min":0,"x_max":583,"ha":583,"o":"m 217 336 q 175 315 154 284 q 134 253 134 210 q 134 138 196 83 q 258 29 341 29 q 404 29 441 61 q 478 93 478 147 q 478 199 428 237 q 378 276 217 336 z m 358 409 q 388 431 401 453 q 415 476 415 502 q 415 561 363 606 q 311 651 243 651 q 202 651 174 627 q 147 604 147 568 q 147 525 187 493 q 228 460 358 409 z m 192 347 q 138 374 112 410 q 86 446 86 497 q 86 583 150 639 q 214 695 314 695 q 396 695 445 655 q 495 615 495 550 q 495 500 467 462 q 438 425 379 398 q 467 368 508 324 q 549 281 549 218 q 549 172 528 131 q 508 89 469 56 q 426 20 371 0 q 315 -19 254 -19 q 157 -19 94 35 q 30 88 30 168 q 30 228 70 273 q 111 318 192 347 z"},"\\":{"x_min":0,"x_max":292,"ha":292,"o":"m 308 -93 l 250 -93 l 1 722 l 59 722 z"},"e":{"x_min":0,"x_max":453,"ha":453,"o":"m 138 216 l 321 216 l 321 223 q 321 279 299 310 q 277 340 236 340 q 196 340 171 309 q 147 278 138 216 z m 137 193 q 141 128 179 88 q 218 49 279 49 q 332 49 385 97 q 400 111 405 111 q 408 111 410 109 q 412 107 412 104 q 412 99 405 87 q 398 75 387 62 q 354 23 313 5 q 272 -14 221 -14 q 139 -14 87 36 q 35 86 35 166 q 35 253 94 308 q 152 363 245 363 q 325 363 371 322 q 416 281 416 208 q 416 206 416 201 q 415 196 415 193 z"},"b":{"x_min":0,"x_max":535,"ha":535,"o":"m 189 -2 q 170 0 156 0 q 141 1 127 1 q 96 1 62 -2 q 28 -6 25 -6 q 17 -6 13 -3 q 9 -1 9 4 q 9 10 21 15 q 34 20 86 30 q 89 48 90 68 q 92 89 92 116 l 92 141 l 92 654 q 92 742 83 763 q 75 785 51 785 q 42 785 28 783 q 15 781 11 781 q 8 781 6 783 q 4 786 4 790 q 4 799 35 807 q 50 811 59 813 q 93 823 136 838 q 178 853 186 853 q 190 853 191 850 q 193 848 193 839 l 193 830 l 193 297 q 237 332 275 348 q 313 364 350 364 q 418 364 459 319 q 500 274 500 198 q 500 104 449 45 q 398 -14 317 -14 q 283 -14 251 -2 q 219 9 189 32 z m 194 265 l 194 62 q 221 37 245 25 q 269 12 290 12 q 337 12 365 56 q 394 100 394 173 q 394 240 367 278 q 340 315 293 315 q 269 315 245 303 q 220 291 194 265 z"},"%":{"x_min":0,"x_max":812,"ha":812,"o":"m 615 -10 q 540 -10 492 37 q 445 84 445 159 q 445 233 492 280 q 540 327 615 327 q 690 327 738 280 q 785 233 785 159 q 785 84 738 37 q 690 -10 615 -10 z m 198 349 q 123 349 75 396 q 28 442 28 517 q 28 592 75 638 q 123 685 198 685 q 273 685 321 638 q 368 592 368 517 q 368 442 321 396 q 273 349 198 349 z m 615 19 q 655 19 678 56 q 701 93 701 159 q 701 224 678 261 q 655 298 615 298 q 575 298 552 261 q 530 224 530 159 q 530 93 552 56 q 575 19 615 19 z m 192 -38 l 575 714 l 622 714 l 238 -38 z m 198 377 q 238 377 261 414 q 284 451 284 517 q 284 582 261 620 q 238 657 198 657 q 158 657 135 620 q 112 582 112 517 q 112 451 135 414 q 158 377 198 377 z"},"m":{"x_min":0,"x_max":856,"ha":856,"o":"m 207 274 l 207 114 q 207 87 208 67 q 210 47 213 29 q 244 21 256 15 q 268 9 268 3 q 268 -2 264 -4 q 261 -6 252 -6 q 252 -6 216 -3 q 180 0 145 0 q 110 0 74 -3 q 38 -6 37 -6 q 28 -6 25 -4 q 22 -2 22 3 q 22 10 37 16 q 53 21 99 29 q 102 47 104 67 q 105 87 105 114 l 105 139 l 105 226 q 105 252 104 271 q 102 290 99 307 l 60 307 q 24 307 16 310 q 8 312 8 319 q 8 328 35 331 q 45 332 52 333 q 101 340 147 355 q 193 369 194 369 q 202 369 205 367 q 207 364 207 355 l 207 303 q 275 335 320 349 q 364 364 391 364 q 428 364 452 347 q 475 331 481 300 q 549 333 594 348 q 640 364 667 364 q 719 364 741 337 q 762 310 762 235 l 762 139 q 762 93 764 71 q 765 49 769 29 q 815 21 831 16 q 846 10 846 3 q 846 -2 843 -4 q 839 -6 830 -6 q 829 -6 793 -3 q 758 0 723 0 q 688 0 652 -3 q 616 -6 616 -6 q 607 -6 604 -4 q 600 -2 600 3 q 600 9 612 15 q 623 21 654 29 q 658 48 659 71 q 661 94 661 139 l 661 209 q 661 274 648 294 q 635 314 600 314 q 576 314 548 304 q 520 294 485 274 l 485 114 q 485 87 486 67 q 488 47 491 29 q 522 21 534 15 q 546 9 546 3 q 546 -2 542 -4 q 539 -6 530 -6 q 526 -6 494 -3 q 462 0 434 0 q 406 0 374 -3 q 341 -6 338 -6 q 329 -6 325 -4 q 322 -2 322 3 q 322 9 333 14 q 345 20 377 29 q 380 47 381 67 q 383 87 383 114 l 383 139 l 383 209 q 383 274 370 294 q 356 314 322 314 q 298 314 270 304 q 242 294 207 274 z"},"#":{"x_min":0,"x_max":769,"ha":769,"o":"m 343 422 l 295 287 l 433 287 l 480 422 z m 371 712 l 447 712 l 368 490 l 503 490 l 582 712 l 658 712 l 579 490 l 726 490 l 702 422 l 555 422 l 508 287 l 664 287 l 640 219 l 484 219 l 405 -2 l 329 -2 l 408 219 l 272 219 l 193 -2 l 118 -2 l 196 219 l 43 219 l 68 287 l 220 287 l 268 422 l 104 422 l 129 490 l 292 490 z"},",":{"x_min":0,"x_max":292,"ha":292,"o":"m 68 -168 q 68 -167 72 -158 q 100 -92 100 -6 q 100 26 98 63 q 97 72 97 75 q 97 84 126 94 q 156 104 189 104 q 200 104 205 99 q 209 93 209 80 q 209 58 193 15 q 178 -28 151 -78 q 122 -132 105 -156 q 88 -179 78 -179 q 73 -179 71 -176 q 68 -173 68 -168 z"},"n":{"x_min":0,"x_max":590,"ha":590,"o":"m 207 274 l 207 114 q 207 87 208 67 q 210 47 213 29 q 249 21 263 16 q 277 10 277 3 q 277 -2 273 -4 q 270 -6 261 -6 q 257 -6 245 -5 q 194 0 149 0 q 104 0 53 -5 q 41 -6 37 -6 q 28 -6 25 -4 q 22 -2 22 3 q 22 10 37 16 q 53 21 99 29 q 102 47 104 67 q 105 87 105 114 l 105 139 l 105 226 q 105 252 104 271 q 102 290 99 307 l 60 307 q 24 307 16 310 q 8 312 8 319 q 8 328 35 331 q 45 332 52 333 q 101 340 147 355 q 193 369 194 369 q 202 369 205 367 q 207 364 207 355 l 207 303 q 271 333 320 348 q 369 364 399 364 q 453 364 474 337 q 496 311 496 235 l 496 139 q 496 93 498 71 q 500 48 503 29 q 549 21 565 16 q 580 10 580 3 q 580 -2 576 -4 q 573 -6 564 -6 q 561 -6 547 -5 q 497 0 452 0 q 407 0 356 -5 q 343 -6 340 -6 q 331 -6 328 -4 q 324 -2 324 3 q 324 10 338 16 q 353 21 388 29 q 391 47 393 67 q 394 87 394 114 l 394 139 l 394 209 q 394 276 381 295 q 367 314 331 314 q 301 314 271 304 q 242 295 207 274 z"},"h":{"x_min":0,"x_max":576,"ha":576,"o":"m 193 274 l 193 114 q 193 87 194 67 q 196 47 199 29 q 235 21 249 16 q 263 10 263 3 q 263 -2 260 -4 q 256 -6 247 -6 q 244 -6 231 -5 q 180 0 135 0 q 90 0 40 -5 q 26 -6 23 -6 q 14 -6 10 -4 q 7 -2 7 3 q 7 12 55 24 q 74 28 85 31 q 88 73 90 122 q 92 171 92 228 l 92 654 q 92 742 83 763 q 75 785 51 785 q 42 785 28 783 q 15 781 11 781 q 7 781 5 784 q 3 786 3 790 q 3 799 34 807 q 49 811 58 813 q 92 823 135 838 q 177 853 185 853 q 189 853 191 849 q 193 845 193 830 l 193 303 q 257 333 306 348 q 355 364 385 364 q 438 364 460 337 q 482 311 482 235 l 482 114 q 482 87 483 67 q 485 47 488 29 q 535 21 551 15 q 566 10 566 3 q 566 -2 562 -4 q 559 -6 550 -6 q 546 -6 534 -5 q 482 0 438 0 q 393 0 342 -5 q 330 -6 326 -6 q 317 -6 313 -4 q 310 -2 310 3 q 310 10 324 16 q 338 21 374 29 q 377 47 378 67 q 380 87 380 114 l 380 139 l 380 209 q 380 276 367 295 q 354 314 317 314 q 287 314 258 304 q 228 295 193 274 z"},"z":{"x_min":0,"x_max":463,"ha":463,"o":"m 184 22 l 192 22 q 246 22 293 32 q 340 42 379 62 l 397 133 q 401 147 403 151 q 405 155 409 155 q 414 155 416 152 q 418 149 418 145 q 418 143 416 132 q 402 51 402 -39 q 402 -47 402 -55 q 403 -63 403 -64 q 403 -71 401 -75 q 399 -79 395 -79 q 391 -79 389 -76 q 387 -74 386 -64 l 378 -7 q 352 -3 312 -2 q 273 0 202 0 q 141 0 76 -3 q 62 -4 58 -4 q 48 -4 44 -1 q 40 2 40 8 q 40 10 120 111 q 200 211 270 327 l 260 327 q 197 327 152 317 q 108 308 80 288 l 68 234 q 65 218 62 214 q 60 210 55 210 q 52 210 50 213 q 48 215 48 222 q 48 223 49 231 q 56 273 56 315 q 56 353 53 390 q 52 396 52 398 q 52 401 55 404 q 57 406 61 406 q 67 406 69 395 q 70 393 70 392 l 78 357 q 107 353 149 351 q 191 349 253 349 q 315 349 380 353 q 395 354 398 354 q 407 354 411 351 q 416 347 416 341 q 416 338 336 238 q 255 137 184 22 z"},"B":{"x_min":0,"x_max":745,"ha":745,"o":"m 141 476 q 141 533 139 581 q 138 629 134 672 q 77 678 57 684 q 37 690 37 699 q 37 704 42 708 q 46 711 54 711 q 60 711 100 707 q 141 702 177 702 q 219 702 293 708 q 367 713 398 713 q 520 713 585 669 q 651 625 651 544 q 651 478 596 425 q 542 372 451 352 q 560 348 616 307 q 673 266 673 192 q 673 104 591 48 q 509 -9 378 -9 q 339 -9 271 -3 q 203 2 175 2 q 142 2 101 -2 q 61 -7 54 -7 q 46 -7 42 -4 q 37 0 37 5 q 37 14 56 19 q 74 24 134 31 q 138 74 139 123 q 141 171 141 228 z m 264 31 q 294 23 321 20 q 348 16 372 16 q 453 16 501 60 q 549 103 549 175 q 549 256 502 296 q 455 336 359 336 q 347 336 302 335 q 274 334 257 334 l 257 228 q 257 170 259 122 q 260 73 264 31 z m 257 476 l 257 359 q 274 358 290 358 q 305 358 319 358 q 433 358 485 397 q 537 437 537 523 q 537 599 492 644 q 447 689 372 689 q 351 689 324 685 q 297 681 264 672 q 260 630 259 582 q 257 533 257 476 z"},"K":{"x_min":0,"x_max":733,"ha":733,"o":"m 141 476 q 141 533 139 581 q 138 629 134 672 q 77 678 57 684 q 37 690 37 699 q 37 704 42 708 q 46 711 54 711 q 58 711 73 709 q 138 702 199 702 q 259 702 325 709 q 340 711 344 711 q 352 711 356 708 q 361 704 361 699 q 361 690 341 684 q 321 678 264 672 q 260 630 259 582 q 257 533 257 476 l 257 360 q 394 502 448 565 q 501 627 529 672 q 478 681 464 686 q 450 691 450 699 q 450 705 454 708 q 458 711 466 711 q 471 711 488 709 q 550 702 603 702 q 647 702 693 707 q 738 711 739 711 q 746 711 750 708 q 755 705 755 699 q 755 690 735 684 q 715 678 658 672 q 586 626 298 373 l 275 352 q 301 356 323 359 q 345 361 362 361 q 424 361 465 335 q 507 309 548 243 l 623 123 q 652 76 667 60 q 683 44 696 44 q 705 44 719 52 q 732 60 737 60 q 741 60 744 56 q 748 53 748 49 q 748 35 708 8 q 668 -19 632 -19 q 605 -19 584 -2 q 563 14 530 66 l 407 260 q 381 302 354 319 q 327 336 288 336 q 279 336 260 334 q 258 334 257 334 l 257 228 q 257 170 259 122 q 260 73 264 31 q 330 23 345 18 q 361 13 361 5 q 361 0 356 -4 q 352 -7 344 -7 q 340 -7 324 -5 q 259 1 199 1 q 138 1 73 -5 q 58 -7 54 -7 q 46 -7 42 -4 q 37 0 37 5 q 37 14 56 19 q 74 24 134 31 q 138 74 139 123 q 141 171 141 228 z"},"R":{"x_min":0,"x_max":708,"ha":708,"o":"m 141 475 q 141 532 139 581 q 138 629 134 672 q 74 678 56 684 q 37 689 37 698 q 37 703 42 707 q 46 710 54 710 q 60 710 101 706 q 142 701 177 701 q 211 701 279 706 q 347 711 380 711 q 514 711 583 666 q 653 621 653 534 q 653 453 588 397 q 524 342 413 328 l 552 133 q 595 73 615 57 q 635 41 656 41 q 667 41 680 45 q 692 50 695 50 q 699 50 702 47 q 705 44 705 39 q 705 25 669 3 q 634 -19 600 -19 q 524 -19 430 114 l 426 120 l 287 319 q 282 326 280 330 q 278 335 278 339 q 278 346 282 350 q 286 353 294 353 q 295 353 313 352 q 330 350 346 350 q 449 350 495 384 q 542 418 542 492 q 542 571 486 627 q 429 682 347 682 q 328 682 307 679 q 286 677 264 672 q 260 630 259 581 q 257 532 257 475 l 257 228 q 257 170 259 122 q 260 73 264 31 q 326 23 343 18 q 361 13 361 4 q 361 -1 356 -4 q 352 -7 344 -7 q 340 -7 324 -5 q 259 1 199 1 q 138 1 73 -5 q 58 -7 54 -7 q 46 -7 42 -4 q 37 -1 37 4 q 37 13 57 19 q 77 25 134 31 q 138 74 139 123 q 141 171 141 228 z"},"T":{"x_min":0,"x_max":676,"ha":676,"o":"m 639 628 q 584 652 525 665 q 466 677 403 677 q 399 627 397 577 q 395 527 395 476 l 395 228 q 395 177 397 128 q 399 79 403 32 q 464 24 481 19 q 499 14 499 5 q 499 0 495 -4 q 490 -7 483 -7 q 482 -7 435 -2 q 388 2 341 2 q 281 2 214 -5 q 196 -7 192 -7 q 185 -7 180 -4 q 176 0 176 5 q 176 14 196 20 q 216 26 272 32 q 276 80 278 129 q 280 178 280 228 l 280 476 q 280 532 278 582 q 276 632 273 677 q 209 677 151 665 q 92 652 37 628 l 30 571 q 28 559 26 554 q 23 550 18 550 q 14 550 13 554 q 11 559 11 569 q 11 571 13 597 q 15 624 15 647 q 15 679 12 715 q 10 751 10 756 q 10 763 12 766 q 14 769 18 769 q 21 769 24 765 q 26 761 28 754 l 33 723 q 64 714 133 709 q 201 704 297 704 l 379 704 q 474 704 542 709 q 611 714 642 723 l 648 754 q 649 761 652 765 q 654 769 657 769 q 661 769 663 766 q 665 763 665 756 q 665 753 663 717 q 661 680 661 647 q 661 624 663 597 q 664 571 664 569 q 664 559 662 555 q 661 550 657 550 q 652 550 650 554 q 648 558 646 571 z"},"P":{"x_min":0,"x_max":669,"ha":669,"o":"m 257 345 q 291 342 316 340 q 341 339 357 339 q 444 339 491 381 q 538 423 538 500 q 538 584 488 634 q 438 684 354 684 q 335 684 313 681 q 290 678 264 672 q 260 630 259 582 q 257 533 257 476 z m 141 476 q 141 533 139 581 q 138 629 134 672 q 77 678 57 684 q 37 690 37 699 q 37 704 42 708 q 46 711 54 711 q 57 711 100 707 q 143 702 184 702 q 222 702 300 706 q 378 710 417 710 q 530 710 592 662 q 655 613 655 527 q 655 430 575 371 q 496 313 360 313 q 339 313 315 315 q 291 316 257 320 l 257 228 q 257 170 259 122 q 260 73 264 31 q 334 26 358 21 q 382 15 382 5 q 382 0 377 -4 q 373 -7 366 -7 q 363 -7 351 -6 q 277 1 199 1 q 139 1 74 -5 q 58 -7 54 -7 q 46 -7 42 -4 q 37 0 37 5 q 37 14 56 19 q 74 24 134 31 q 138 74 139 123 q 141 171 141 228 z"},"|":{"x_min":0,"x_max":500,"ha":500,"o":"m 214 764 l 287 764 l 287 -236 l 214 -236 z"},"t":{"x_min":0,"x_max":352,"ha":352,"o":"m 94 322 q 67 320 51 318 q 35 317 22 315 l 22 356 q 38 354 73 352 q 87 351 94 350 l 97 500 l 106 506 q 166 542 200 562 l 197 350 l 253 350 q 264 350 282 352 q 301 353 322 356 l 322 315 q 296 318 278 320 q 259 322 253 322 l 196 322 l 194 165 l 194 152 q 194 88 207 66 q 220 44 252 44 q 277 44 304 60 q 331 75 334 75 q 339 75 342 73 q 345 70 345 66 q 345 45 293 15 q 241 -14 189 -14 q 135 -14 113 15 q 91 43 91 121 l 91 137 z"},"M":{"x_min":0,"x_max":905,"ha":905,"o":"m 181 31 q 244 24 264 19 q 283 14 283 5 q 283 0 279 -4 q 274 -7 267 -7 q 265 -7 221 -3 q 177 1 135 1 q 102 1 63 -3 q 25 -7 19 -7 q 12 -7 7 -4 q 2 0 2 5 q 2 14 21 19 q 39 24 99 31 q 109 65 118 123 q 126 181 136 275 l 166 586 l 146 616 q 129 642 114 657 q 98 672 84 676 q 74 679 58 683 q 28 689 28 699 q 28 705 32 708 q 37 711 44 711 q 55 711 90 707 q 125 702 149 702 q 163 702 180 703 q 196 704 214 706 l 463 276 l 652 708 q 670 706 688 704 q 707 703 725 703 q 749 703 782 707 q 814 711 824 711 q 831 711 835 708 q 840 705 840 699 q 840 690 820 684 q 800 678 744 672 l 769 187 q 771 148 775 109 q 780 70 786 31 q 847 24 865 19 q 884 14 884 5 q 884 0 880 -4 q 875 -7 868 -7 q 864 -7 848 -5 q 782 1 722 1 q 661 1 596 -5 q 581 -7 577 -7 q 570 -7 565 -4 q 561 0 561 5 q 561 14 579 19 q 598 24 657 31 q 657 72 656 116 q 654 160 652 209 l 631 591 q 583 489 542 401 q 501 312 475 252 l 447 187 q 445 183 442 174 q 434 152 424 152 q 419 152 415 156 q 411 159 405 170 l 184 556 l 170 330 q 168 304 168 278 q 167 252 167 228 q 167 172 170 124 q 174 75 181 31 z"},"g":{"x_min":0,"x_max":495,"ha":495,"o":"m 398 172 q 398 194 382 214 q 367 234 335 253 q 299 274 259 286 q 218 298 181 298 q 146 298 126 283 q 106 269 106 242 q 106 220 122 200 q 138 180 169 161 q 206 140 246 128 q 286 116 321 116 q 357 116 377 131 q 398 146 398 172 z m 117 -84 q 104 -98 97 -112 q 90 -125 90 -139 q 90 -172 126 -190 q 163 -209 228 -209 q 292 -209 337 -187 q 381 -165 381 -135 q 381 -99 263 -93 q 249 -92 242 -92 z m 116 77 q 85 95 69 122 q 53 149 53 182 q 53 255 123 309 q 192 364 289 364 q 315 364 339 358 q 362 353 382 341 q 405 357 417 370 q 429 383 429 391 q 429 402 412 423 q 394 445 394 462 q 394 484 408 499 q 423 514 444 514 q 471 514 486 500 q 502 485 502 461 q 502 427 478 395 q 454 363 401 329 q 424 310 436 285 q 447 261 447 231 q 447 154 384 103 q 320 52 225 52 q 200 52 177 56 q 154 60 132 68 q 123 54 118 44 q 114 35 114 28 q 114 11 135 4 q 157 -3 227 -5 l 306 -7 q 388 -9 414 -26 q 440 -43 440 -85 q 440 -146 377 -188 q 313 -231 218 -231 q 140 -231 96 -209 q 52 -188 52 -150 q 52 -134 62 -117 q 73 -100 94 -80 q 72 -76 60 -63 q 48 -50 48 -31 q 48 -10 65 17 q 82 44 116 77 z"},"j":{"x_min":0,"x_max":274,"ha":274,"o":"m 195 25 q 195 -50 180 -87 q 165 -125 127 -159 q 88 -195 61 -213 q 34 -232 20 -232 q 16 -232 12 -230 q 9 -228 9 -225 q 9 -218 29 -196 q 48 -173 60 -155 q 78 -126 85 -85 q 93 -44 93 35 l 93 226 q 93 252 92 271 q 90 290 87 307 l 48 307 q 12 307 4 310 q -4 312 -4 319 q -4 328 22 331 q 33 332 40 333 q 89 340 135 355 q 181 369 182 369 q 191 369 193 367 q 195 365 195 355 z m 84 554 q 84 579 103 597 q 121 616 146 616 q 170 616 189 598 q 207 579 207 554 q 207 528 189 510 q 171 491 146 491 q 121 491 102 510 q 84 528 84 554 z"},"i":{"x_min":0,"x_max":301,"ha":301,"o":"m 207 139 l 207 114 q 207 87 208 67 q 210 47 213 29 q 259 21 275 16 q 290 10 290 3 q 290 -2 287 -4 q 284 -6 275 -6 q 273 -6 263 -5 q 209 0 156 0 q 103 0 49 -5 q 39 -6 37 -6 q 28 -6 25 -4 q 22 -2 22 3 q 22 10 37 16 q 53 21 99 29 q 102 47 104 67 q 105 87 105 114 l 105 139 l 105 226 q 105 252 104 271 q 102 290 99 307 l 60 307 q 24 307 16 310 q 8 312 8 319 q 8 328 35 331 q 45 332 52 333 q 101 340 147 355 q 193 369 194 369 q 202 369 205 367 q 207 364 207 355 z m 84 554 q 84 579 103 597 q 121 616 146 616 q 170 616 189 598 q 207 579 207 554 q 207 528 189 510 q 171 491 146 491 q 121 491 102 510 q 84 528 84 554 z"},"y":{"x_min":0,"x_max":476,"ha":476,"o":"m 66 321 q 34 325 15 332 q -4 339 -4 347 q -4 352 0 354 q 3 356 12 356 q 16 356 29 354 q 79 349 123 349 q 168 349 219 354 q 232 356 236 356 q 245 356 249 354 q 252 352 252 347 q 252 339 233 333 q 214 326 177 321 l 282 93 q 311 168 328 227 q 345 287 347 321 q 316 328 302 334 q 288 340 288 347 q 288 352 292 354 q 295 356 304 356 q 307 356 334 354 q 361 351 385 351 q 409 351 436 354 q 463 356 466 356 q 475 356 478 354 q 481 352 481 347 q 481 340 467 334 q 453 328 423 321 q 402 289 382 252 q 362 214 342 171 l 259 -7 q 194 -147 160 -189 q 126 -232 89 -232 q 64 -232 46 -213 q 29 -194 29 -167 q 29 -142 45 -125 q 61 -107 83 -107 q 104 -107 123 -125 q 141 -142 141 -142 q 152 -142 179 -105 q 206 -68 230 -15 z"},"@":{"x_min":0,"x_max":986,"ha":986,"o":"m 579 162 q 549 111 512 86 q 475 61 429 61 q 366 61 329 106 q 291 151 291 226 q 291 279 315 332 q 339 384 384 427 q 417 458 455 475 q 493 492 531 492 q 575 492 602 469 q 629 445 639 399 l 664 484 l 741 484 l 657 185 q 657 184 655 179 q 648 152 648 137 q 648 112 659 99 q 671 85 692 85 q 708 85 731 95 q 754 104 775 120 q 833 164 863 232 q 892 299 892 387 q 892 452 866 507 q 841 562 790 605 q 746 643 686 663 q 625 683 555 683 q 467 683 391 653 q 315 623 257 565 q 195 504 164 425 q 133 345 133 250 q 133 161 161 97 q 188 33 248 -17 q 301 -62 372 -86 q 443 -110 522 -110 q 605 -110 682 -85 q 758 -60 828 -9 l 844 -29 q 772 -83 692 -110 q 611 -137 523 -137 q 431 -137 354 -115 q 278 -93 220 -49 q 146 6 108 86 q 69 166 69 262 q 69 361 111 448 q 153 535 234 601 q 299 655 378 683 q 456 710 545 710 q 714 710 816 618 q 918 526 918 374 q 918 296 889 229 q 861 161 808 113 q 779 87 747 74 q 714 60 681 60 q 634 60 608 86 q 583 112 579 162 z m 539 469 q 513 469 491 454 q 469 439 447 406 q 412 354 392 292 q 371 230 371 180 q 371 138 390 113 q 410 87 440 87 q 472 87 500 108 q 528 129 554 173 q 581 218 597 272 q 614 327 614 369 q 614 414 593 442 q 573 469 539 469 z"},".":{"x_min":0,"x_max":292,"ha":292,"o":"m 146 -14 q 120 -14 102 4 q 83 23 83 49 q 83 73 102 92 q 122 111 146 111 q 172 111 190 93 q 208 75 208 49 q 208 21 191 4 q 173 -14 146 -14 z"},"p":{"x_min":0,"x_max":549,"ha":549,"o":"m 105 238 q 105 251 104 268 q 102 285 99 307 l 60 307 q 24 307 16 310 q 8 312 8 319 q 8 328 35 331 q 45 332 52 333 q 101 340 147 355 q 193 369 194 369 q 202 369 205 367 q 207 364 207 355 l 207 296 q 251 331 289 347 q 327 363 364 363 q 433 363 473 318 q 514 273 514 197 q 514 103 463 44 q 412 -14 331 -14 q 298 -14 267 -3 q 235 7 207 28 l 207 -69 q 207 -98 208 -130 q 210 -161 213 -196 q 269 -197 302 -204 q 334 -211 334 -222 q 334 -227 330 -229 q 327 -231 318 -231 q 314 -231 300 -229 q 235 -223 174 -223 q 110 -223 44 -229 q 30 -231 27 -231 q 18 -231 15 -229 q 11 -227 11 -222 q 11 -214 31 -208 q 51 -202 99 -196 q 102 -160 104 -128 q 105 -97 105 -69 z m 207 265 l 207 66 q 232 40 256 26 q 281 12 303 12 q 350 12 379 56 q 407 100 407 173 q 407 240 380 278 q 354 315 306 315 q 282 315 258 303 q 233 291 207 265 z"},"X":{"x_min":0,"x_max":719,"ha":719,"o":"m 650 31 q 715 23 730 18 q 746 13 746 5 q 746 0 742 -4 q 737 -7 730 -7 q 726 -7 710 -5 q 644 1 584 1 q 502 1 426 -6 q 415 -7 413 -7 q 406 -7 401 -4 q 397 0 397 5 q 397 15 423 21 q 448 27 515 31 l 328 310 q 280 234 241 163 q 202 92 175 31 q 245 24 263 19 q 281 14 281 5 q 281 0 277 -4 q 272 -7 265 -7 q 265 -7 219 -3 q 173 1 128 1 q 88 1 46 -3 q 4 -7 1 -7 q -6 -7 -11 -4 q -15 0 -15 5 q -15 13 0 18 q 16 23 81 31 q 127 76 185 151 q 242 227 313 335 l 84 672 q 28 678 8 684 q -12 690 -12 699 q -12 705 -8 708 q -3 711 4 711 q 8 711 23 709 q 90 702 150 702 q 225 702 297 709 q 310 711 312 711 q 319 711 324 708 q 328 705 328 699 q 328 689 305 683 q 282 677 219 672 l 385 423 q 442 502 477 563 q 513 624 530 672 q 473 678 453 684 q 433 690 433 699 q 433 705 438 708 q 442 711 449 711 q 452 711 494 707 q 537 702 577 702 q 617 702 659 707 q 701 711 704 711 q 711 711 716 708 q 720 705 720 699 q 720 690 700 684 q 680 678 623 672 q 557 598 501 531 q 446 463 401 401 z"},"*":{"x_min":0,"x_max":329,"ha":329,"o":"m 188 598 q 202 608 227 635 q 253 661 273 661 q 284 661 292 653 q 300 644 300 632 q 300 608 249 594 q 218 585 200 578 l 200 564 q 215 559 241 551 q 300 534 300 510 q 300 498 291 489 q 283 480 270 480 q 253 480 229 506 q 205 533 189 543 l 179 536 q 180 518 188 491 q 196 465 196 455 q 196 438 188 428 q 180 419 166 419 q 152 419 145 428 q 137 437 137 455 q 137 465 145 491 q 153 518 154 536 l 140 543 q 125 533 100 506 q 75 480 58 480 q 46 480 37 489 q 29 498 29 510 q 29 534 87 551 q 113 559 128 564 l 129 578 q 111 585 81 594 q 29 608 29 632 q 29 644 37 653 q 45 661 56 661 q 76 661 102 635 q 127 608 141 598 l 154 605 q 153 624 145 650 q 137 676 137 686 q 137 704 145 713 q 152 722 166 722 q 181 722 188 713 q 196 704 196 686 q 196 676 188 650 q 180 624 179 605 z"},"Y":{"x_min":0,"x_max":634,"ha":634,"o":"m 55 672 q -1 678 -21 684 q -41 690 -41 699 q -41 705 -37 708 q -32 711 -25 711 q -21 711 -6 709 q 60 702 120 702 q 180 702 247 709 q 262 711 266 711 q 273 711 278 708 q 282 705 282 699 q 282 690 262 684 q 242 678 185 672 l 360 376 q 428 475 466 548 q 504 622 514 672 q 457 678 437 684 q 417 690 417 699 q 417 705 421 708 q 426 711 433 711 q 437 711 478 707 q 519 702 556 702 q 589 702 627 707 q 666 711 672 711 q 679 711 684 708 q 688 705 688 699 q 688 687 623 674 q 617 673 613 672 q 569 627 510 548 q 451 468 372 347 l 372 228 q 372 170 374 121 q 375 73 379 31 q 446 24 466 19 q 487 14 487 5 q 487 0 482 -4 q 477 -7 469 -7 q 465 -7 448 -5 q 378 1 314 1 q 250 1 180 -5 q 163 -7 159 -7 q 151 -7 146 -4 q 141 0 141 5 q 141 14 159 19 q 178 24 249 31 q 252 73 254 122 q 256 171 256 228 l 256 328 z"},"c":{"x_min":0,"x_max":437,"ha":437,"o":"m 380 344 l 398 392 q 401 400 404 403 q 407 405 411 405 q 414 405 416 403 q 418 401 418 399 q 418 397 406 348 q 394 299 394 254 q 394 246 395 232 q 395 219 395 214 q 395 202 393 198 q 392 194 388 194 q 379 194 373 220 q 369 235 366 245 q 351 292 323 316 q 295 341 256 341 q 203 341 170 303 q 138 265 138 202 q 138 131 176 87 q 213 43 272 43 q 326 43 384 95 q 397 108 401 108 q 405 108 407 105 q 410 103 410 99 q 410 93 400 78 q 390 63 374 48 q 343 18 304 2 q 265 -14 220 -14 q 138 -14 86 35 q 34 85 34 164 q 34 253 97 308 q 160 364 261 364 q 296 364 326 359 q 355 354 380 344 z"},"!":{"x_min":0,"x_max":338,"ha":338,"o":"m 154 186 l 114 628 q 114 630 113 633 q 112 647 112 654 q 112 669 118 678 q 125 687 139 695 q 162 708 183 716 q 205 724 213 724 q 221 724 225 718 q 229 712 229 699 q 229 692 229 689 q 229 685 228 681 l 180 186 q 179 174 177 170 q 174 166 168 166 q 161 166 158 169 q 155 173 154 186 z m 171 -9 q 145 -9 126 9 q 108 27 108 52 q 108 77 127 96 q 146 115 171 115 q 197 115 215 97 q 234 79 234 54 q 234 26 216 9 q 198 -9 171 -9 z"},"/":{"x_min":0,"x_max":292,"ha":292,"o":"m -18 -93 l 231 722 l 290 722 l 41 -93 z"},"[":{"x_min":0,"x_max":319,"ha":319,"o":"m 197 -181 l 278 -181 q 286 -181 289 -184 q 292 -186 292 -192 q 292 -197 288 -201 q 285 -204 278 -204 l 109 -204 l 109 704 l 278 704 q 285 704 288 701 q 292 697 292 692 q 292 686 289 684 q 286 681 278 681 l 197 681 z"},"6":{"x_min":0,"x_max":583,"ha":583,"o":"m 156 222 q 156 107 188 56 q 221 4 291 4 q 359 4 395 60 q 431 116 431 222 q 431 328 395 384 q 359 439 291 439 q 220 439 188 387 q 156 336 156 222 z m 157 387 q 187 435 229 458 q 271 482 328 482 q 424 482 484 418 q 544 355 544 252 q 544 132 472 57 q 399 -19 286 -19 q 166 -19 102 56 q 37 131 37 271 q 37 400 96 511 q 155 622 277 720 q 312 748 342 767 q 371 785 379 785 q 383 785 386 783 q 388 780 388 776 q 388 769 367 752 q 346 736 333 724 q 260 654 217 572 q 174 490 157 387 z"},"r":{"x_min":0,"x_max":391,"ha":391,"o":"m 204 249 q 229 307 261 338 q 293 369 327 369 q 354 369 370 354 q 386 338 386 311 q 386 286 371 271 q 356 256 332 256 q 307 256 291 276 q 276 297 273 297 q 251 297 229 245 q 208 192 208 122 l 208 108 q 208 83 209 63 q 211 43 214 29 q 259 27 286 20 q 312 13 312 3 q 312 -2 309 -4 q 306 -6 297 -6 q 295 -6 287 -5 q 224 0 156 0 q 103 0 49 -5 q 39 -6 37 -6 q 28 -6 25 -4 q 22 -2 22 3 q 22 10 37 16 q 53 21 99 29 q 102 47 104 67 q 105 87 105 114 l 105 139 l 105 226 q 105 252 104 271 q 102 290 99 307 l 60 307 q 24 307 16 310 q 8 312 8 319 q 8 329 41 332 q 63 334 79 337 q 115 343 150 356 q 186 369 186 369 q 193 369 197 362 q 200 354 201 340 z"},"2":{"x_min":0,"x_max":583,"ha":583,"o":"m 87 46 q 225 48 328 60 q 432 72 481 92 l 491 170 q 494 191 497 200 q 501 208 508 208 q 512 208 515 204 q 517 200 517 192 q 517 188 511 140 q 505 91 505 47 q 505 -11 509 -65 q 510 -72 510 -74 q 510 -81 507 -84 q 505 -87 500 -87 q 490 -87 485 -55 q 485 -53 485 -52 l 480 -12 q 440 -6 388 -3 q 335 0 265 0 l 149 0 q 111 0 70 -3 q 28 -6 24 -6 q 16 -6 12 -3 q 9 0 9 5 q 9 13 52 47 q 95 81 130 113 q 260 233 323 325 q 385 417 385 490 q 385 550 343 589 q 301 628 236 628 q 191 628 152 608 q 112 588 78 549 q 71 542 62 528 q 46 507 37 507 q 33 507 32 509 q 30 511 30 515 q 30 524 39 540 q 48 555 64 575 q 113 635 169 665 q 225 694 291 694 q 387 694 443 647 q 499 601 499 522 q 499 434 415 333 q 332 233 87 46 z"},"{":{"x_min":0,"x_max":500,"ha":500,"o":"m 414 740 l 414 714 q 348 713 323 688 q 299 662 299 585 l 299 516 q 299 405 270 365 q 241 326 164 310 q 242 294 270 255 q 299 215 299 104 l 299 35 q 299 -42 323 -67 q 347 -92 414 -93 l 414 -119 l 409 -119 q 302 -119 262 -83 q 222 -47 222 50 l 222 151 q 222 229 193 259 q 165 289 87 295 l 87 326 q 166 333 194 362 q 222 392 222 470 l 222 571 q 222 668 262 704 q 302 740 409 740 z"},"9":{"x_min":0,"x_max":583,"ha":583,"o":"m 423 454 q 423 568 391 620 q 358 672 288 672 q 220 672 185 616 q 149 561 149 454 q 149 348 184 292 q 220 237 288 237 q 359 237 391 288 q 423 340 423 454 z m 422 289 q 392 241 350 217 q 308 194 252 194 q 155 194 95 258 q 35 321 35 424 q 35 543 107 619 q 179 694 293 694 q 413 694 477 619 q 542 544 542 405 q 542 277 483 166 q 423 55 302 -44 q 267 -72 237 -91 q 208 -109 200 -109 q 196 -109 193 -106 q 191 -104 191 -100 q 191 -93 212 -77 q 233 -61 246 -48 q 319 22 362 105 q 405 187 422 289 z"}," ":{"x_min":0,"x_max":292,"ha":292,"o":""},"I":{"x_min":0,"x_max":398,"ha":398,"o":"m 141 476 q 141 533 139 581 q 138 629 134 672 q 77 678 57 684 q 37 690 37 699 q 37 704 42 708 q 46 711 54 711 q 58 711 73 709 q 138 702 199 702 q 259 702 325 709 q 340 711 344 711 q 352 711 356 708 q 361 704 361 699 q 361 690 341 684 q 321 678 264 672 q 260 630 259 582 q 257 533 257 476 l 257 228 q 257 170 259 122 q 260 73 264 31 q 330 23 345 18 q 361 13 361 5 q 361 0 356 -4 q 352 -7 344 -7 q 340 -7 324 -5 q 259 1 199 1 q 138 1 73 -5 q 58 -7 54 -7 q 46 -7 42 -4 q 37 0 37 5 q 37 14 56 19 q 74 24 134 31 q 138 74 139 123 q 141 171 141 228 z"},"H":{"x_min":0,"x_max":859,"ha":859,"o":"m 257 228 q 257 170 259 122 q 260 73 264 31 q 330 23 345 18 q 361 13 361 5 q 361 0 356 -4 q 352 -7 344 -7 q 340 -7 324 -5 q 259 1 199 1 q 138 1 73 -5 q 58 -7 54 -7 q 46 -7 42 -4 q 37 0 37 5 q 37 14 56 19 q 74 24 134 31 q 138 74 139 123 q 141 171 141 228 l 141 476 q 141 533 139 581 q 138 629 134 672 q 77 678 57 684 q 37 690 37 699 q 37 704 42 708 q 46 711 54 711 q 58 711 73 709 q 138 702 199 702 q 259 702 325 709 q 340 711 344 711 q 352 711 356 708 q 361 704 361 699 q 361 690 341 684 q 321 678 264 672 q 260 630 259 582 q 257 533 257 476 l 257 363 l 602 363 l 602 476 q 602 533 600 581 q 599 629 595 672 q 538 678 518 684 q 498 690 498 699 q 498 705 502 708 q 507 711 514 711 q 518 711 533 709 q 599 702 660 702 q 720 702 786 709 q 801 711 805 711 q 812 711 817 708 q 821 705 821 699 q 821 690 801 684 q 781 678 725 672 q 721 625 719 576 q 717 527 717 476 l 717 228 q 717 177 719 127 q 721 78 725 31 q 790 23 805 18 q 821 13 821 5 q 821 0 817 -4 q 812 -7 805 -7 q 801 -7 785 -5 q 720 1 660 1 q 599 1 534 -5 q 518 -7 514 -7 q 507 -7 502 -4 q 498 0 498 5 q 498 14 517 19 q 535 24 595 31 q 599 74 600 123 q 602 171 602 228 l 602 338 l 257 338 z"},"4":{"x_min":0,"x_max":583,"ha":583,"o":"m 309 237 l 309 544 q 255 474 199 398 q 143 323 83 237 z m 412 32 q 477 28 501 22 q 526 16 526 5 q 526 0 522 -3 q 518 -6 510 -6 q 506 -6 491 -4 q 418 3 346 3 q 274 3 200 -4 q 185 -6 181 -6 q 174 -6 170 -3 q 166 0 166 5 q 166 17 197 23 q 229 29 309 32 l 309 164 l 177 164 q 96 164 22 154 q 11 152 9 152 q 4 152 1 156 q -3 161 -3 165 q -3 180 42 233 q 81 281 106 315 l 201 444 q 202 446 207 451 q 284 552 369 687 q 375 697 384 712 q 398 737 404 737 q 409 737 410 734 q 412 731 412 723 l 412 237 l 444 237 q 457 237 474 239 q 492 242 514 246 l 528 340 q 531 356 533 361 q 536 366 541 366 q 545 366 547 363 q 549 359 549 351 q 549 347 548 333 q 543 272 543 216 q 543 184 545 146 q 548 109 548 104 q 548 95 546 92 q 545 89 540 89 q 531 89 525 117 q 524 122 524 124 l 516 158 q 500 161 481 163 q 463 164 444 164 l 412 164 z"},"~":{"x_min":0,"x_max":833,"ha":833,"o":"m 747 376 l 747 300 q 696 265 650 248 q 604 231 557 231 q 512 231 432 259 q 421 263 416 265 l 408 268 q 322 297 275 297 q 234 297 189 279 q 145 261 87 220 l 87 296 q 139 331 186 349 q 232 366 276 366 q 306 366 338 360 q 370 353 418 336 q 426 333 441 328 q 519 300 558 300 q 601 300 646 318 q 690 336 747 376 z"},"D":{"x_min":0,"x_max":778,"ha":778,"o":"m 264 31 q 280 22 298 18 q 316 14 338 14 q 466 14 537 101 q 608 188 608 344 q 608 506 539 597 q 471 687 347 687 q 326 687 305 683 q 284 680 264 672 q 260 630 259 582 q 257 533 257 476 l 257 228 q 257 170 259 122 q 260 73 264 31 z m 134 31 q 138 74 139 123 q 141 171 141 228 l 141 476 q 141 533 139 581 q 138 629 134 672 q 77 678 57 684 q 37 690 37 699 q 37 704 42 708 q 46 711 54 711 q 60 711 101 707 q 141 702 176 702 q 206 702 267 707 q 328 711 360 711 q 535 711 636 617 q 737 523 737 361 q 737 194 630 92 q 523 -10 349 -10 q 321 -10 262 -4 q 203 2 172 2 q 141 2 102 -2 q 62 -7 54 -7 q 46 -7 42 -4 q 37 0 37 5 q 37 14 56 19 q 74 24 134 31 z"},"^":{"x_min":0,"x_max":1000,"ha":1000,"o":"m 452 714 l 547 714 l 797 438 l 749 438 l 499 643 l 248 438 l 201 438 z"},"0":{"x_min":0,"x_max":583,"ha":583,"o":"m 291 4 q 365 4 395 77 q 425 149 425 338 q 425 526 395 599 q 365 671 291 671 q 218 671 188 596 q 157 522 157 338 q 157 154 188 79 q 218 4 291 4 z m 292 -19 q 169 -19 104 73 q 39 164 39 338 q 39 509 105 602 q 171 694 292 694 q 416 694 480 603 q 544 513 544 338 q 544 166 479 73 q 413 -19 292 -19 z"},"F":{"x_min":0,"x_max":677,"ha":677,"o":"m 257 228 q 257 171 259 123 q 260 74 264 32 q 326 24 343 19 q 361 14 361 5 q 361 0 356 -4 q 352 -7 344 -7 q 342 -7 332 -6 q 269 0 199 0 q 130 0 66 -6 q 56 -7 54 -7 q 46 -7 42 -4 q 37 0 37 5 q 37 14 57 20 q 77 26 134 32 q 138 75 139 123 q 141 171 141 228 l 141 476 q 141 533 139 581 q 138 629 134 672 q 77 678 57 684 q 37 690 37 699 q 37 704 42 708 q 46 711 54 711 q 56 711 66 710 q 130 704 199 704 l 344 704 q 439 704 507 709 q 576 714 607 723 l 613 754 q 614 761 617 765 q 620 769 623 769 q 627 769 629 766 q 631 763 631 756 q 631 753 628 717 q 626 680 626 647 q 626 624 628 597 q 630 571 630 569 q 630 559 628 554 q 627 550 623 550 q 618 550 615 554 q 613 559 611 571 l 604 633 q 552 656 491 668 q 431 680 364 680 q 344 680 320 678 q 295 676 264 672 q 260 630 259 582 q 257 533 257 476 l 257 370 l 289 370 q 376 370 447 377 q 519 385 575 400 l 584 457 q 586 468 588 472 q 591 476 595 476 q 599 476 602 472 q 604 469 604 462 q 604 460 602 425 q 599 390 599 357 q 599 324 602 289 q 604 254 604 252 q 604 246 602 242 q 600 238 595 238 q 590 238 588 242 q 586 245 584 256 l 575 314 q 518 330 443 337 q 368 345 275 345 l 257 345 z"},"`":{"x_min":0,"x_max":500,"ha":500,"o":"m 212 556 l 345 418 l 301 418 l 148 498 q 121 513 111 524 q 102 535 102 551 q 102 570 114 583 q 126 595 146 595 q 161 595 177 586 q 192 577 212 556 z"},"k":{"x_min":0,"x_max":556,"ha":556,"o":"m 207 167 q 210 168 249 181 q 288 193 318 204 l 343 173 q 381 196 399 217 q 416 239 416 264 q 416 292 398 308 q 380 325 350 325 q 319 325 280 308 q 241 291 235 291 q 233 291 231 293 q 229 295 229 298 q 229 312 290 338 q 352 364 416 364 q 463 364 490 344 q 517 323 517 287 q 517 251 477 220 q 438 188 354 158 q 423 73 448 52 q 472 30 489 30 q 502 30 516 41 q 531 52 535 52 q 540 52 541 51 q 543 49 543 46 q 543 27 517 6 q 491 -14 460 -14 q 429 -14 391 8 q 354 30 299 81 z m 92 626 l 92 654 q 92 742 83 763 q 75 785 51 785 q 42 785 28 783 q 15 781 11 781 q 7 781 5 784 q 3 786 3 790 q 3 799 34 807 q 49 811 58 813 q 92 823 135 838 q 177 853 185 853 q 189 853 191 849 q 193 845 193 830 l 193 228 q 193 170 195 122 q 196 73 200 31 q 209 28 226 22 q 263 11 263 3 q 263 -2 260 -4 q 256 -6 247 -6 q 244 -6 231 -5 q 180 0 135 0 q 90 0 40 -5 q 26 -6 23 -6 q 14 -6 10 -4 q 7 -2 7 3 q 7 9 20 15 q 33 20 85 31 q 88 73 90 122 q 92 171 92 228 z"},"u":{"x_min":0,"x_max":576,"ha":576,"o":"m 90 226 q 90 252 88 271 q 87 290 84 307 l 45 307 q 9 307 1 310 q -7 312 -7 319 q -7 328 20 331 q 30 332 37 333 q 86 340 132 355 q 178 369 179 369 q 187 369 189 367 q 192 365 192 355 l 192 141 q 192 74 205 55 q 219 36 255 36 q 286 36 316 45 q 345 55 379 75 l 379 226 q 379 252 377 271 q 376 290 373 307 l 334 307 q 298 307 290 310 q 282 312 282 319 q 282 328 309 331 q 319 332 326 333 q 375 340 421 355 q 467 369 468 369 q 476 369 479 367 q 481 364 481 355 l 481 114 q 481 87 482 67 q 484 47 487 29 q 533 21 549 16 q 564 10 564 3 q 564 -2 561 -4 q 558 -6 549 -6 q 546 -6 512 -3 q 477 0 446 0 q 432 0 416 -1 q 399 -1 379 -3 l 379 47 q 316 17 267 1 q 217 -14 187 -14 q 133 -14 112 12 q 90 39 90 114 z"},"]":{"x_min":0,"x_max":319,"ha":319,"o":"m 122 681 l 42 681 q 35 681 31 684 q 27 687 27 692 q 27 697 31 701 q 36 704 42 704 l 210 704 l 210 -204 l 42 -204 q 36 -204 31 -201 q 27 -197 27 -192 q 27 -187 31 -184 q 35 -181 42 -181 l 122 -181 z"},"U":{"x_min":0,"x_max":819,"ha":819,"o":"m 632 673 q 573 679 554 685 q 536 690 536 699 q 536 705 541 708 q 545 711 552 711 q 555 711 595 707 q 636 703 674 703 q 712 703 752 707 q 792 711 795 711 q 802 711 807 708 q 811 705 811 699 q 811 690 793 685 q 774 679 715 673 q 708 634 702 572 q 696 510 691 413 l 684 271 q 676 122 612 51 q 548 -19 420 -19 q 335 -19 276 5 q 216 29 178 78 q 154 110 144 156 q 134 201 134 299 l 134 476 q 134 533 132 582 q 130 630 127 672 q 64 680 46 685 q 28 690 28 699 q 28 705 32 708 q 37 711 44 711 q 47 711 61 709 q 126 703 190 703 q 254 703 319 709 q 332 711 335 711 q 342 711 347 708 q 351 705 351 699 q 351 691 334 685 q 317 680 257 672 q 253 630 252 582 q 250 533 250 476 l 250 283 q 250 210 254 175 q 258 140 267 114 q 286 61 327 35 q 368 9 434 9 q 551 9 604 83 q 656 157 656 326 l 656 427 q 656 476 650 537 q 644 599 632 673 z"},"o":{"x_min":0,"x_max":530,"ha":530,"o":"m 148 172 q 148 95 178 52 q 208 9 261 9 q 315 9 349 55 q 382 102 382 180 q 382 253 351 297 q 320 340 269 340 q 214 340 181 295 q 148 250 148 172 z m 262 -14 q 157 -14 96 35 q 35 84 35 169 q 35 258 98 311 q 161 364 268 364 q 375 364 435 314 q 495 264 495 175 q 495 90 431 38 q 367 -14 262 -14 z"},"N":{"x_min":0,"x_max":795,"ha":795,"o":"m 165 568 l 169 353 q 171 248 178 162 q 185 76 194 31 q 259 25 281 20 q 302 15 302 5 q 302 0 298 -4 q 293 -7 286 -7 q 285 -7 241 -3 q 198 1 154 1 q 111 1 66 -3 q 22 -7 21 -7 q 14 -7 9 -4 q 5 0 5 5 q 5 14 23 19 q 41 24 111 31 q 125 122 131 207 q 138 292 138 366 l 138 602 q 135 606 129 613 q 83 669 44 681 q 41 682 34 684 q 11 691 11 699 q 11 705 15 708 q 20 711 27 711 q 28 711 62 708 q 96 704 129 704 q 144 704 160 705 q 176 706 194 707 l 643 167 l 639 350 q 637 454 630 541 q 624 627 614 672 q 552 677 529 683 q 506 689 506 699 q 506 705 510 708 q 515 711 522 711 q 523 711 567 707 q 610 702 654 702 q 697 702 741 707 q 786 711 787 711 q 794 711 799 708 q 803 705 803 699 q 803 689 781 683 q 758 677 697 672 q 684 583 677 498 q 670 413 670 338 l 670 67 q 670 33 672 1 q 673 -4 673 -5 q 673 -12 670 -16 q 667 -21 663 -21 q 662 -21 659 -20 q 657 -18 655 -15 z"},"+":{"x_min":0,"x_max":833,"ha":833,"o":"m 382 596 l 451 596 l 451 332 l 709 332 l 709 264 l 451 264 l 451 0 l 382 0 l 382 264 l 124 264 l 124 332 l 382 332 z"},"G":{"x_min":0,"x_max":833,"ha":833,"o":"m 672 682 l 681 731 q 687 762 691 769 q 694 776 700 776 q 705 776 707 772 q 709 769 709 761 q 709 756 706 734 q 693 640 693 553 q 693 530 694 506 q 696 481 696 480 q 696 470 694 466 q 691 461 687 461 q 681 461 678 465 q 676 468 674 483 l 663 565 q 612 626 548 659 q 485 691 415 691 q 292 691 224 618 q 155 544 155 414 q 155 350 169 295 q 184 239 212 193 q 260 116 324 75 q 389 34 461 34 q 501 34 540 47 q 578 60 617 86 l 617 326 q 553 331 529 337 q 506 343 506 353 q 506 358 510 361 q 514 364 522 364 q 524 364 567 360 q 610 356 652 356 q 695 356 740 360 q 785 364 786 364 q 794 364 798 361 q 802 358 802 353 q 802 345 786 339 q 770 333 729 326 l 729 167 q 729 131 738 104 q 740 100 740 98 q 740 89 718 88 q 696 86 680 81 q 665 76 621 54 q 576 31 548 19 q 504 0 463 -10 q 422 -19 382 -19 q 322 -19 267 -1 q 212 17 170 50 q 108 99 76 168 q 44 238 44 322 q 44 412 80 490 q 116 569 184 629 q 236 675 305 699 q 374 723 454 723 q 510 723 565 713 q 620 702 672 682 z"},"q":{"x_min":0,"x_max":537,"ha":537,"o":"m 341 53 q 297 19 259 2 q 220 -14 183 -14 q 115 -14 74 30 q 33 75 33 148 q 33 244 93 305 q 153 365 248 365 q 292 365 327 354 q 362 344 387 323 q 410 347 439 360 q 468 374 494 374 q 504 374 510 371 q 516 368 516 362 q 516 356 500 352 q 484 347 476 340 q 457 325 449 298 q 442 271 442 197 l 442 184 l 442 0 q 442 -51 444 -100 q 446 -149 450 -196 q 500 -203 518 -209 q 536 -214 536 -222 q 536 -227 532 -229 q 529 -231 520 -231 q 517 -231 505 -230 q 439 -223 373 -223 q 312 -223 247 -229 q 233 -231 230 -231 q 221 -231 218 -229 q 214 -227 214 -222 q 214 -211 246 -204 q 278 -197 334 -196 q 338 -149 339 -121 q 341 -92 341 -69 z m 342 84 l 342 233 q 342 290 323 316 q 303 343 261 343 q 204 343 173 300 q 142 257 142 177 q 142 109 169 72 q 195 34 243 34 q 267 34 292 46 q 316 59 342 84 z"},"d":{"x_min":0,"x_max":549,"ha":549,"o":"m 341 83 l 341 287 q 313 312 289 324 q 265 336 241 336 q 197 336 169 292 q 141 247 141 175 q 141 108 168 71 q 194 34 242 34 q 267 34 291 46 q 315 58 341 83 z m 341 53 q 297 18 259 2 q 221 -14 184 -14 q 115 -14 75 31 q 34 75 34 151 q 34 245 85 304 q 136 363 217 363 q 249 363 280 352 q 311 342 341 320 l 341 640 q 341 741 331 763 q 322 785 293 785 q 281 785 264 783 q 248 781 244 781 q 240 781 238 783 q 235 786 235 789 q 235 799 277 808 q 285 809 289 810 q 331 819 378 836 q 425 853 433 853 q 438 853 439 849 q 441 846 441 830 l 441 110 q 441 73 447 59 q 453 44 468 44 q 484 44 510 64 q 535 85 540 85 q 543 85 546 83 q 548 80 548 76 q 548 69 538 57 q 529 45 511 30 q 485 8 461 -3 q 438 -14 416 -14 q 388 -14 369 3 q 350 20 341 53 z"},"1":{"x_min":0,"x_max":583,"ha":583,"o":"m 353 228 q 353 170 355 121 q 356 73 360 31 q 438 26 465 21 q 491 15 491 5 q 491 0 487 -4 q 482 -7 475 -7 q 473 -7 462 -6 q 385 1 300 1 q 215 1 137 -6 q 126 -7 124 -7 q 117 -7 112 -4 q 108 0 108 5 q 108 16 137 22 q 166 28 239 31 q 243 74 244 123 q 246 171 246 228 l 246 626 q 216 619 187 615 q 157 612 128 612 q 112 612 105 615 q 97 618 97 625 q 97 635 126 638 q 146 640 159 642 q 254 657 329 693 q 340 698 342 698 q 348 698 351 694 q 353 690 353 677 z"},"5":{"x_min":0,"x_max":583,"ha":583,"o":"m 155 578 l 92 372 q 143 409 195 427 q 248 445 303 445 q 407 445 472 386 q 537 327 537 232 q 537 123 460 52 q 383 -19 265 -19 q 215 -19 166 -3 q 117 12 70 42 q 44 59 32 71 q 20 83 20 91 q 20 95 23 98 q 26 101 31 101 q 38 101 64 85 q 162 27 245 27 q 326 27 379 73 q 431 119 431 189 q 431 267 380 312 q 330 358 242 358 q 206 358 170 348 q 134 339 92 317 q 85 313 73 306 q 61 299 57 299 q 52 299 50 302 q 47 304 47 308 q 47 311 47 312 q 47 312 48 314 l 156 675 l 429 675 q 458 675 473 680 q 487 685 497 698 q 501 703 509 718 q 517 733 524 733 q 529 733 531 730 q 533 728 533 722 q 533 711 520 680 q 506 649 486 617 q 472 595 456 586 q 439 578 399 578 l 380 578 z"}}}
